<?xml version="1.0" standalone="no"?>
<!DOCTYPE svg PUBLIC "-//W3C//DTD SVG 20010904//EN"
 "http://www.w3.org/TR/2001/REC-SVG-20010904/DTD/svg10.dtd">
<svg version="1.0" xmlns="http://www.w3.org/2000/svg"
 width="348.000000pt" height="361.000000pt" viewBox="0 0 348.000000 361.000000"
 preserveAspectRatio="xMidYMid meet">

<g transform="translate(0.000000,361.000000) scale(0.100000,-0.100000)"
fill="#000000" stroke="none">
<path d="M803 3575 c-121 -74 -107 -259 25 -317 156 -69 311 98 232 252 -30
59 -73 84 -150 88 -55 2 -71 -1 -107 -23z m147 -107 c41 -44 11 -111 -50 -111
-22 0 -39 7 -52 22 -23 30 -23 52 3 85 26 33 70 35 99 4z"/>
<path d="M1560 3555 c-53 -7 -114 -18 -135 -23 -22 -6 -52 -13 -66 -16 -26 -6
-27 -7 -16 -48 9 -37 8 -43 -9 -52 -10 -6 -42 -33 -70 -61 -53 -51 -74 -97
-74 -161 0 -28 -8 -35 -90 -84 -351 -207 -605 -564 -685 -960 -24 -118 -30
-347 -12 -465 30 -190 99 -381 192 -530 45 -72 46 -75 34 -114 -10 -34 -9 -47
5 -86 24 -62 65 -90 138 -91 52 -1 60 -4 110 -48 78 -69 232 -170 330 -216 73
-34 143 -59 306 -108 17 -5 29 -22 41 -60 21 -61 59 -105 115 -134 31 -16 54
-19 111 -16 80 4 119 25 172 95 38 49 45 160 15 219 -42 81 -113 124 -204 124
-68 -1 -125 -27 -169 -79 l-36 -41 -77 20 c-161 42 -353 140 -490 250 l-81 65
-5 65 c-7 97 -43 138 -132 149 l-51 6 -48 84 c-187 325 -226 690 -113 1036
101 306 322 581 589 734 l76 44 32 -31 c41 -40 95 -62 151 -62 25 0 47 -3 49
-7 10 -16 129 -523 125 -533 -2 -6 -36 -28 -75 -50 l-72 -39 -109 104 -109
104 -39 -40 -38 -39 106 -108 106 -107 -33 -49 c-19 -27 -39 -62 -46 -77 -6
-16 -17 -29 -23 -29 -6 0 -70 15 -142 34 l-131 33 -13 -54 c-6 -30 -10 -56 -8
-57 1 -2 63 -18 137 -37 l134 -34 1 -83 1 -82 -65 -21 c-36 -12 -68 -23 -72
-25 -10 -6 25 -104 37 -104 7 0 38 9 70 20 32 11 59 19 60 18 1 -2 11 -23 23
-48 34 -72 106 -154 177 -205 86 -62 180 -94 297 -102 l93 -6 249 -418 249
-418 26 14 c51 27 181 121 260 189 191 164 356 391 456 631 50 118 109 331
121 433 l7 62 125 0 125 0 -6 110 c-4 61 -18 168 -32 238 -154 764 -682 1283
-1402 1377 -136 18 -342 18 -473 0z m520 -121 c96 -16 244 -59 326 -95 l44
-18 -84 -169 -85 -169 -46 -5 c-140 -16 -216 -181 -140 -303 70 -113 225 -127
317 -29 35 38 48 74 48 134 0 59 -13 97 -46 131 l-25 27 83 167 84 167 110
-73 c131 -88 281 -234 373 -364 71 -102 175 -308 220 -436 37 -108 78 -291 87
-388 l7 -74 -234 6 c-129 4 -359 7 -511 7 l-277 0 -11 58 c-36 180 -184 345
-365 407 -27 9 -95 20 -150 24 l-100 6 -116 485 c-64 267 -115 488 -113 492 5
7 57 17 158 29 101 11 334 3 446 -17z m-695 -146 c3 -7 16 -60 29 -117 l24
-103 -36 5 c-24 4 -47 17 -64 37 -48 53 -49 103 -2 159 28 33 42 38 49 19z
m943 -454 c43 -49 14 -127 -54 -140 -46 -9 -94 35 -94 86 0 31 6 44 32 65 38
32 81 29 116 -11z m-443 -519 c173 -45 297 -182 328 -359 31 -180 -69 -368
-240 -453 -67 -33 -86 -38 -168 -41 -76 -4 -105 0 -158 17 -131 44 -234 147
-278 278 -17 53 -21 82 -17 158 3 82 8 101 41 168 92 186 296 283 492 232z
m957 -485 l268 0 -6 -42 c-38 -269 -152 -541 -319 -763 -102 -135 -374 -382
-395 -358 -13 14 -422 705 -418 706 1 1 30 16 63 32 92 46 187 142 235 236 21
44 45 107 51 141 l12 61 120 -7 c66 -3 241 -6 389 -6z m-1022 -1235 c40 -21
60 -53 60 -98 0 -56 -52 -107 -108 -107 -110 0 -151 144 -58 201 37 23 67 24
106 4z"/>
<path d="M1725 2141 c-78 -19 -161 -96 -183 -169 -54 -178 66 -342 248 -342
179 1 296 160 246 334 -38 130 -178 209 -311 177z m150 -135 c57 -37 77 -141
38 -194 -51 -69 -126 -89 -193 -53 -40 21 -80 83 -80 124 -1 118 134 189 235
123z"/>
<path d="M590 3250 c-28 -28 -26 -81 3 -108 49 -46 127 -12 127 56 0 43 -30
72 -75 72 -22 0 -43 -8 -55 -20z"/>
<path d="M436 3089 c-19 -15 -26 -30 -26 -55 0 -47 29 -74 79 -74 47 0 71 26
71 76 0 37 -38 74 -75 74 -12 0 -34 -9 -49 -21z"/>
<path d="M282 2910 c-28 -26 -30 -90 -4 -113 28 -25 84 -22 110 6 65 69 -37
171 -106 107z"/>
<path d="M182 2697 c-29 -31 -28 -72 3 -102 48 -49 125 -16 125 53 0 67 -82
98 -128 49z"/>
<path d="M113 2488 c-12 -6 -27 -24 -34 -41 -15 -36 1 -73 44 -97 24 -13 30
-13 54 0 43 24 59 61 44 97 -12 29 -47 54 -74 52 -7 0 -22 -5 -34 -11z"/>
<path d="M42 2238 c-16 -16 -16 -70 0 -86 17 -17 64 -15 82 4 35 34 6 94 -45
94 -14 0 -30 -5 -37 -12z"/>
<path d="M22 2008 c-20 -20 -15 -76 7 -88 61 -32 123 37 75 84 -18 19 -65 21
-82 4z"/>
<path d="M52 1784 c-40 -27 -18 -104 29 -104 29 0 59 31 59 60 0 28 -30 60
-55 60 -6 0 -21 -7 -33 -16z"/>
<path d="M66 1559 c-37 -29 -37 -89 0 -118 35 -28 69 -26 99 4 33 32 33 78 0
110 -30 30 -64 32 -99 4z"/>
<path d="M115 1340 c-27 -30 -25 -88 4 -111 35 -28 85 -25 110 7 27 34 27 64
0 98 -26 33 -86 37 -114 6z"/>
<path d="M221 1133 c-56 -47 -24 -133 49 -133 30 0 43 6 60 27 39 50 3 123
-60 123 -15 0 -37 -8 -49 -17z"/>
<path d="M384 960 c-28 -11 -54 -48 -54 -78 0 -53 79 -91 122 -58 70 53 12
168 -68 136z"/>
<path d="M506 759 c-30 -24 -35 -72 -10 -107 11 -16 25 -22 55 -22 50 0 79 27
79 74 0 39 -37 76 -75 76 -12 0 -34 -9 -49 -21z"/>
<path d="M3060 653 c-56 -21 -70 -96 -24 -132 15 -12 38 -21 51 -21 34 0 73
42 73 80 0 28 -29 70 -49 70 -5 0 -15 2 -23 4 -7 3 -20 2 -28 -1z"/>
<path d="M672 597 c-46 -49 -12 -127 56 -127 43 0 72 30 72 75 0 69 -81 102
-128 52z"/>
<path d="M2870 480 c-12 -12 -20 -33 -20 -55 0 -46 29 -75 74 -75 39 0 76 37
76 75 0 12 -9 34 -21 49 -26 33 -79 36 -109 6z"/>
<path d="M935 471 c-148 -67 -174 -266 -49 -369 97 -80 245 -59 318 46 41 57
49 158 18 218 -55 108 -181 154 -287 105z m135 -106 c60 -31 77 -92 40 -152
-34 -57 -121 -61 -167 -8 -55 63 -5 171 80 174 10 1 31 -6 47 -14z"/>
<path d="M2662 347 c-48 -50 -15 -127 53 -127 46 0 75 29 75 74 0 66 -84 100
-128 53z"/>
<path d="M2455 255 c-50 -49 -20 -129 48 -129 49 0 77 27 77 75 0 70 -77 103
-125 54z"/>
<path d="M1321 224 c-28 -35 -26 -69 4 -99 51 -52 125 -20 125 53 0 48 -24 72
-73 72 -27 0 -41 -7 -56 -26z"/>
<path d="M2246 189 c-55 -43 -22 -133 49 -133 46 0 75 31 75 79 0 38 -37 75
-75 75 -12 0 -34 -9 -49 -21z"/>
<path d="M1550 150 c-46 -46 -9 -130 56 -130 63 0 98 86 54 130 -27 27 -83 27
-110 0z"/>
<path d="M2023 160 c-67 -27 -52 -132 22 -146 74 -14 118 88 59 135 -29 23
-46 25 -81 11z"/>
<path d="M1810 123 c-21 -7 -40 -33 -40 -55 0 -24 35 -58 60 -58 25 0 60 34
60 58 0 37 -44 67 -80 55z"/>
</g>
</svg>
